<svg width="66" height="67" viewBox="0 0 66 67" fill="none" xmlns="http://www.w3.org/2000/svg">
<path d="M56.5 5C56.5 2.79086 54.7091 1 52.5 1H13.5C11.2909 1 9.5 2.79086 9.5 5V13H56.5V5Z" fill="url(#paint0_linear_7_67)"/>
<path d="M56.5 13H9.5L1 24.5H65.5L56.5 13Z" fill="white"/>
<path d="M65.5 24.5H1V62.5C1 64.7091 2.79086 66.5 5 66.5H61.5C63.7091 66.5 65.5 64.7091 65.5 62.5V24.5Z" fill="#CFF6FF"/>
<path d="M56.5 13V5C56.5 2.79086 54.7091 1 52.5 1H13.5C11.2909 1 9.5 2.79086 9.5 5V13M56.5 13H9.5M56.5 13L65.5 24.5M9.5 13L1 24.5M1 24.5H65.5M1 24.5V62.5C1 64.7091 2.79086 66.5 5 66.5H61.5C63.7091 66.5 65.5 64.7091 65.5 62.5V24.5" stroke="black"/>
<path d="M36 38L40 42M42.174 39.812C42.7027 39.2834 42.9998 38.5665 42.9999 37.8189C43 37.0713 42.7031 36.3542 42.1745 35.8255C41.6459 35.2968 40.929 34.9997 40.1813 34.9996C39.4337 34.9995 38.7167 35.2964 38.188 35.825L24.842 49.174C24.6098 49.4055 24.4381 49.6905 24.342 50.004L23.021 54.356C22.9952 54.4425 22.9932 54.5344 23.0153 54.6219C23.0375 54.7094 23.0829 54.7892 23.1468 54.853C23.2107 54.9168 23.2906 54.9621 23.3782 54.9841C23.4657 55.0061 23.5576 55.004 23.644 54.978L27.997 53.658C28.3102 53.5628 28.5952 53.3921 28.827 53.161L42.174 39.812Z" stroke="black" stroke-width="2" stroke-linecap="round" stroke-linejoin="round"/>
<defs>
<linearGradient id="paint0_linear_7_67" x1="56.5" y1="8.336" x2="9.5" y2="8.336" gradientUnits="userSpaceOnUse">
<stop stop-color="#FFD4F3"/>
<stop offset="1" stop-color="#D0F7FF"/>
</linearGradient>
</defs>
</svg>
