<svg width="24" height="24" viewBox="0 0 24 24" fill="none" xmlns="http://www.w3.org/2000/svg">
<path d="M15 2H9V4.789C8.99998 5.57879 8.76616 6.3509 8.328 7.008L7.672 7.992C7.23366 8.64939 6.99982 9.42187 7 10.212L7 15C7.79177 14.6684 8.6416 14.4977 9.5 14.4977C10.3584 14.4977 11.2082 14.6684 12 15C12.7917 15.3317 13.6416 15.5025 14.5 15.5025C15.3584 15.5025 16.2083 15.3317 17 15V10.211C17 9.42121 16.7662 8.6491 16.328 7.992L15.672 7.008C15.2337 6.35061 14.9998 5.57813 15 4.788V2Z" fill="white"/>
<path d="M7 15L7 20C7 20.5304 7.21071 21.0391 7.58579 21.4142C7.96086 21.7893 8.46957 22 9 22H15C15.5304 22 16.0391 21.7893 16.4142 21.4142C16.7893 21.0391 17 20.5304 17 20V15C16.2083 15.3317 15.3584 15.5025 14.5 15.5025C13.6416 15.5025 12.7917 15.3317 12 15C11.2082 14.6684 10.3584 14.4977 9.5 14.4977C8.6416 14.4977 7.79177 14.6684 7 15Z" fill="#C47FB2"/>
<path d="M8 2H16M7 10.212C6.99982 9.42187 7.23366 8.64939 7.672 7.992L8.328 7.008C8.76616 6.3509 8.99998 5.57879 9 4.789V2H15V4.788C14.9998 5.57813 15.2337 6.35061 15.672 7.008L16.328 7.992C16.7662 8.6491 17 9.42121 17 10.211M7 10.212V20M7 10.212L7 15M7 20C7 20.5304 7.21071 21.0391 7.58579 21.4142C7.96086 21.7893 8.46957 22 9 22H15C15.5304 22 16.0391 21.7893 16.4142 21.4142C16.7893 21.0391 17 20.5304 17 20M7 20L7 15M17 20V10.211M17 20V15M17 10.211V15M7 15C7.79177 14.6684 8.6416 14.4977 9.5 14.4977C10.3584 14.4977 11.2082 14.6684 12 15C12.7917 15.3317 13.6416 15.5025 14.5 15.5025C15.3584 15.5025 16.2083 15.3317 17 15" stroke="black" stroke-linecap="round" stroke-linejoin="round"/>
</svg>
