<svg width="24" height="24" viewBox="0 0 24 24" fill="none" xmlns="http://www.w3.org/2000/svg">
<path fill-rule="evenodd" clip-rule="evenodd" d="M22 11.9731C22 17.4959 17.5228 21.9731 12 21.9731C6.47713 21.9731 1.99998 17.4959 1.99998 11.9731C1.99998 6.45024 6.47713 1.97308 12 1.97308C17.5228 1.97308 22 6.45024 22 11.9731ZM11.7393 7.00001L11.7493 8.00001H12.2393V7.00001H11.7393ZM11.7393 11V18H12.2393V11H11.7393Z" fill="white"/>
<path d="M11.7393 18V11H12.2393V18H11.7393Z" fill="white"/>
<path d="M11.7393 7.00001L11.7493 8.00001H12.2393V7.00001H11.7393Z" fill="black"/>
<path fill-rule="evenodd" clip-rule="evenodd" d="M22 11.9731C22 17.4959 17.5228 21.9731 12 21.9731C6.47713 21.9731 1.99998 17.4959 1.99998 11.9731C1.99998 6.45024 6.47713 1.97308 12 1.97308C17.5228 1.97308 22 6.45024 22 11.9731ZM11.7393 7.00001L11.7493 8.00001H12.2393V7.00001H11.7393ZM11.7393 11V18H12.2393V11H11.7393Z" stroke="black" stroke-linecap="round" stroke-linejoin="round"/>
<path d="M11.7393 18V11H12.2393V18H11.7393Z" stroke="black" stroke-linecap="round" stroke-linejoin="round"/>
<path d="M11.7393 7.00001L11.7493 8.00001H12.2393V7.00001H11.7393Z" stroke="black" stroke-linecap="round" stroke-linejoin="round"/>
</svg>
